<svg width="1080" height="1080" viewBox="0 0 1080 1080" fill="none" xmlns="http://www.w3.org/2000/svg">
<path d="M767.09 657.747C710.341 741.626 539.688 951.362 539.688 951.362C539.688 951.362 369.034 741.626 312.286 657.747C200.521 492.548 215.656 329.757 330.946 214.467C388.591 156.822 464.14 128 539.689 128C615.238 128 690.787 156.822 748.432 214.467C863.72 329.757 878.855 492.548 767.09 657.747Z" fill="black"/>
<path d="M539.687 609.34C637.801 609.34 717.338 529.803 717.338 431.689C717.338 333.575 637.801 254.038 539.687 254.038C441.573 254.038 362.036 333.575 362.036 431.689C362.036 529.803 441.573 609.34 539.687 609.34Z" fill="white"/>
</svg>
